<svg xmlns="http://www.w3.org/2000/svg" xmlns:xlink="http://www.w3.org/1999/xlink" width="120" zoomAndPan="magnify" viewBox="0 0 90 54.75" height="73" preserveAspectRatio="xMidYMid meet" version="1.0"><defs><filter x="0%" y="0%" width="100%" height="100%" id="756b55aa09"><feColorMatrix values="0 0 0 0 1 0 0 0 0 1 0 0 0 0 1 0 0 0 1 0" color-interpolation-filters="sRGB"/></filter><g/><clipPath id="075833324c"><path d="M 0.203125 3 L 42 3 L 42 44 L 0.203125 44 Z M 0.203125 3 " clip-rule="nonzero"/></clipPath><mask id="b0dc68086d"><g filter="url(#756b55aa09)"><rect x="-9" width="108" fill="#000000" y="-5.475" height="65.7" fill-opacity="0.9882"/></g></mask><clipPath id="cdfb90608f"><path d="M 0.203125 0.933594 L 41.296875 0.933594 L 41.296875 39.757812 L 0.203125 39.757812 Z M 0.203125 0.933594 " clip-rule="nonzero"/></clipPath><clipPath id="21bf206162"><rect x="0" width="42" y="0" height="41"/></clipPath></defs><g clip-path="url(#075833324c)"><g mask="url(#b0dc68086d)"><g transform="matrix(1, 0, 0, 1, 0, 3)"><g clip-path="url(#21bf206162)"><g clip-path="url(#cdfb90608f)"><path fill="#49a6e9" d="M 40.5 11.59375 C 38.8125 5.144531 33.210938 0.988281 26.449219 0.984375 C 18.625 0.980469 10.796875 0.984375 2.972656 0.984375 L 6.039062 6.308594 C 12.847656 6.292969 19.652344 6.296875 26.457031 6.304688 C 28.703125 6.304688 30.726562 6.953125 32.433594 8.429688 C 35.089844 10.71875 35.894531 13.695312 35.542969 17.035156 C 35.140625 20.902344 32.5625 24.148438 29.050781 24.976562 C 27.5625 25.332031 25.957031 25.191406 24.414062 25.34375 C 23.539062 25.433594 23.097656 25.078125 22.683594 24.359375 C 19.839844 19.425781 16.949219 14.515625 14.078125 9.601562 C 13.550781 8.703125 12.980469 8.695312 12.460938 9.574219 C 11.699219 10.878906 10.9375 12.179688 10.171875 13.480469 C 6.949219 18.988281 3.726562 24.488281 0.503906 30 C 0.40625 30.167969 0.339844 30.355469 0.207031 30.652344 L 1.078125 30.652344 C 7.132812 30.652344 13.183594 30.664062 19.234375 30.632812 C 19.675781 30.628906 19.980469 30.722656 20.230469 30.933594 C 20.386719 31.0625 20.515625 31.238281 20.648438 31.464844 C 22.230469 34.21875 23.847656 36.953125 25.4375 39.703125 L 31.695312 39.703125 C 30.949219 38.421875 30.234375 37.207031 29.523438 35.992188 C 28.511719 34.265625 27.507812 32.535156 26.507812 30.820312 C 26.628906 30.726562 26.667969 30.671875 26.710938 30.671875 C 26.890625 30.652344 27.078125 30.648438 27.261719 30.640625 C 30.027344 30.527344 32.535156 29.671875 34.8125 28.128906 C 40.433594 24.328125 42.011719 17.386719 40.5 11.59375 Z M 9.519531 25.269531 C 10.769531 23.128906 11.976562 21.066406 13.253906 18.878906 C 13.976562 20.113281 14.671875 21.304688 15.371094 22.503906 C 15.90625 23.414062 16.4375 24.332031 16.988281 25.269531 Z M 9.519531 25.269531 " fill-opacity="1" fill-rule="nonzero"/></g></g></g></g></g><g fill="#a6a6a6" fill-opacity="1"><g transform="translate(24.921339, 51.299232)"><g><path d="M 3.03125 -5.359375 C 3.832031 -5.359375 4.46875 -5.113281 4.9375 -4.625 C 5.414062 -4.132812 5.65625 -3.46875 5.65625 -2.625 C 5.65625 -2.082031 5.546875 -1.601562 5.328125 -1.1875 C 5.117188 -0.769531 4.8125 -0.445312 4.40625 -0.21875 C 4.007812 0.0078125 3.535156 0.125 2.984375 0.125 C 2.691406 0.125 2.378906 0.0390625 2.046875 -0.125 L 2.046875 2.25 L 0.65625 2.359375 L 0.65625 -5.21875 L 1.375 -5.21875 L 1.640625 -4.859375 C 2.066406 -5.191406 2.53125 -5.359375 3.03125 -5.359375 Z M 2.96875 -1.0625 C 3.351562 -1.0625 3.65625 -1.207031 3.875 -1.5 C 4.09375 -1.789062 4.203125 -2.164062 4.203125 -2.625 C 4.203125 -3.082031 4.09375 -3.453125 3.875 -3.734375 C 3.65625 -4.023438 3.351562 -4.171875 2.96875 -4.171875 C 2.664062 -4.171875 2.359375 -4.066406 2.046875 -3.859375 L 2.046875 -1.375 C 2.335938 -1.164062 2.644531 -1.0625 2.96875 -1.0625 Z M 2.96875 -1.0625 "/></g></g></g><g fill="#a6a6a6" fill-opacity="1"><g transform="translate(30.843348, 51.299232)"><g><path d="M 1.984375 -3.1875 C 2.285156 -3.445312 2.609375 -3.664062 2.953125 -3.84375 C 3.304688 -4.019531 3.601562 -4.109375 3.84375 -4.109375 L 3.5625 -5.21875 C 3.300781 -5.21875 3 -5.128906 2.65625 -4.953125 C 2.320312 -4.773438 2.03125 -4.570312 1.78125 -4.34375 L 1.328125 -5.21875 L 0.59375 -5.21875 L 0.59375 0 L 1.984375 0 Z M 1.984375 -3.1875 "/></g></g></g><g fill="#a6a6a6" fill-opacity="1"><g transform="translate(34.794939, 51.299232)"><g><path d="M 5.84375 -2.625 C 5.84375 -2.070312 5.726562 -1.585938 5.5 -1.171875 C 5.269531 -0.753906 4.941406 -0.429688 4.515625 -0.203125 C 4.097656 0.015625 3.613281 0.125 3.0625 0.125 C 2.5 0.125 2.003906 0.015625 1.578125 -0.203125 C 1.160156 -0.421875 0.835938 -0.738281 0.609375 -1.15625 C 0.378906 -1.570312 0.265625 -2.054688 0.265625 -2.609375 C 0.265625 -3.160156 0.378906 -3.644531 0.609375 -4.0625 C 0.835938 -4.476562 1.160156 -4.796875 1.578125 -5.015625 C 2.003906 -5.242188 2.5 -5.359375 3.0625 -5.359375 C 3.613281 -5.359375 4.097656 -5.242188 4.515625 -5.015625 C 4.941406 -4.796875 5.269531 -4.476562 5.5 -4.0625 C 5.726562 -3.65625 5.84375 -3.175781 5.84375 -2.625 Z M 3.0625 -1.0625 C 3.445312 -1.0625 3.765625 -1.207031 4.015625 -1.5 C 4.273438 -1.800781 4.40625 -2.175781 4.40625 -2.625 C 4.40625 -3.082031 4.28125 -3.453125 4.03125 -3.734375 C 3.78125 -4.023438 3.457031 -4.171875 3.0625 -4.171875 C 2.664062 -4.171875 2.34375 -4.019531 2.09375 -3.71875 C 1.84375 -3.425781 1.71875 -3.054688 1.71875 -2.609375 C 1.71875 -2.148438 1.84375 -1.773438 2.09375 -1.484375 C 2.34375 -1.203125 2.664062 -1.0625 3.0625 -1.0625 Z M 3.0625 -1.0625 "/></g></g></g><g fill="#a6a6a6" fill-opacity="1"><g transform="translate(40.910762, 51.299232)"><g><path d="M 5.453125 0.25 C 5.453125 0.96875 5.203125 1.515625 4.703125 1.890625 C 4.203125 2.273438 3.53125 2.46875 2.6875 2.46875 C 2.414062 2.46875 2.050781 2.410156 1.59375 2.296875 C 1.144531 2.191406 0.796875 2.054688 0.546875 1.890625 L 0.96875 0.890625 C 1.289062 1.046875 1.582031 1.160156 1.84375 1.234375 C 2.113281 1.304688 2.378906 1.347656 2.640625 1.359375 C 3.066406 1.347656 3.40625 1.242188 3.65625 1.046875 C 3.914062 0.847656 4.046875 0.578125 4.046875 0.234375 L 4.046875 -0.203125 C 3.691406 0.015625 3.304688 0.125 2.890625 0.125 C 2.078125 0.125 1.4375 -0.117188 0.96875 -0.609375 C 0.5 -1.097656 0.265625 -1.765625 0.265625 -2.609375 C 0.265625 -3.148438 0.367188 -3.628906 0.578125 -4.046875 C 0.796875 -4.460938 1.101562 -4.785156 1.5 -5.015625 C 1.90625 -5.242188 2.382812 -5.359375 2.9375 -5.359375 C 3.175781 -5.359375 3.429688 -5.300781 3.703125 -5.1875 C 3.972656 -5.070312 4.207031 -4.925781 4.40625 -4.75 L 4.71875 -5.21875 L 5.453125 -5.21875 Z M 2.953125 -1.0625 C 3.140625 -1.0625 3.316406 -1.097656 3.484375 -1.171875 C 3.660156 -1.242188 3.847656 -1.351562 4.046875 -1.5 L 4.046875 -3.71875 C 3.859375 -3.882812 3.675781 -4 3.5 -4.0625 C 3.332031 -4.132812 3.148438 -4.171875 2.953125 -4.171875 C 2.566406 -4.171875 2.265625 -4.023438 2.046875 -3.734375 C 1.828125 -3.441406 1.71875 -3.066406 1.71875 -2.609375 C 1.71875 -2.148438 1.828125 -1.773438 2.046875 -1.484375 C 2.265625 -1.203125 2.566406 -1.0625 2.953125 -1.0625 Z M 2.953125 -1.0625 "/></g></g></g><g fill="#a6a6a6" fill-opacity="1"><g transform="translate(47.026585, 51.299232)"><g><path d="M 1.984375 -3.1875 C 2.285156 -3.445312 2.609375 -3.664062 2.953125 -3.84375 C 3.304688 -4.019531 3.601562 -4.109375 3.84375 -4.109375 L 3.5625 -5.21875 C 3.300781 -5.21875 3 -5.128906 2.65625 -4.953125 C 2.320312 -4.773438 2.03125 -4.570312 1.78125 -4.34375 L 1.328125 -5.21875 L 0.59375 -5.21875 L 0.59375 0 L 1.984375 0 Z M 1.984375 -3.1875 "/></g></g></g><g fill="#a6a6a6" fill-opacity="1"><g transform="translate(50.978176, 51.299232)"><g><path d="M 1.09375 -3.71875 C 1.300781 -3.8125 1.546875 -3.890625 1.828125 -3.953125 C 2.117188 -4.023438 2.378906 -4.0625 2.609375 -4.0625 C 2.867188 -4.0625 3.070312 -3.988281 3.21875 -3.84375 C 3.363281 -3.695312 3.441406 -3.492188 3.453125 -3.234375 L 2.4375 -3.234375 C 1.832031 -3.234375 1.347656 -3.085938 0.984375 -2.796875 C 0.628906 -2.503906 0.453125 -2.09375 0.453125 -1.5625 C 0.453125 -1.039062 0.609375 -0.628906 0.921875 -0.328125 C 1.242188 -0.0234375 1.71875 0.125 2.34375 0.125 C 2.820312 0.125 3.28125 -0.101562 3.71875 -0.5625 L 3.953125 0 L 4.859375 0 L 4.859375 -3.4375 C 4.859375 -3.800781 4.753906 -4.128906 4.546875 -4.421875 C 4.347656 -4.710938 4.078125 -4.941406 3.734375 -5.109375 C 3.390625 -5.273438 3.007812 -5.359375 2.59375 -5.359375 C 2.351562 -5.359375 2.023438 -5.3125 1.609375 -5.21875 C 1.203125 -5.125 0.90625 -5.015625 0.71875 -4.890625 Z M 1.640625 -1.5625 C 1.640625 -1.757812 1.707031 -1.929688 1.84375 -2.078125 C 1.988281 -2.222656 2.175781 -2.296875 2.40625 -2.296875 L 3.46875 -2.296875 L 3.46875 -1.5 C 3.113281 -1.15625 2.726562 -0.984375 2.3125 -0.984375 C 2.125 -0.984375 1.960938 -1.039062 1.828125 -1.15625 C 1.703125 -1.269531 1.640625 -1.40625 1.640625 -1.5625 Z M 1.640625 -1.5625 "/></g></g></g><g fill="#a6a6a6" fill-opacity="1"><g transform="translate(56.394127, 51.299232)"><g><path d="M 6.96875 -5.390625 C 7.570312 -5.390625 8.003906 -5.226562 8.265625 -4.90625 C 8.523438 -4.59375 8.65625 -4.117188 8.65625 -3.484375 L 8.65625 0 L 7.25 0 L 7.25 -3.203125 C 7.25 -3.546875 7.195312 -3.800781 7.09375 -3.96875 C 6.988281 -4.144531 6.828125 -4.234375 6.609375 -4.234375 C 6.390625 -4.234375 6.191406 -4.179688 6.015625 -4.078125 C 5.835938 -3.972656 5.609375 -3.820312 5.328125 -3.625 L 5.328125 0 L 3.921875 0 L 3.921875 -3.203125 C 3.921875 -3.546875 3.867188 -3.800781 3.765625 -3.96875 C 3.671875 -4.144531 3.507812 -4.234375 3.28125 -4.234375 C 3.0625 -4.234375 2.863281 -4.179688 2.6875 -4.078125 C 2.507812 -3.972656 2.273438 -3.820312 1.984375 -3.625 L 1.984375 0 L 0.59375 0 L 0.59375 -5.21875 L 1.5 -5.21875 L 1.75 -4.65625 C 2.070312 -4.882812 2.40625 -5.0625 2.75 -5.1875 C 3.09375 -5.320312 3.394531 -5.390625 3.65625 -5.390625 C 4.363281 -5.390625 4.84375 -5.15625 5.09375 -4.6875 C 5.414062 -4.90625 5.742188 -5.078125 6.078125 -5.203125 C 6.421875 -5.328125 6.71875 -5.390625 6.96875 -5.390625 Z M 6.96875 -5.390625 "/></g></g></g><g fill="#a6a6a6" fill-opacity="1"><g transform="translate(65.600164, 51.299232)"><g><path d="M 6.96875 -5.390625 C 7.570312 -5.390625 8.003906 -5.226562 8.265625 -4.90625 C 8.523438 -4.59375 8.65625 -4.117188 8.65625 -3.484375 L 8.65625 0 L 7.25 0 L 7.25 -3.203125 C 7.25 -3.546875 7.195312 -3.800781 7.09375 -3.96875 C 6.988281 -4.144531 6.828125 -4.234375 6.609375 -4.234375 C 6.390625 -4.234375 6.191406 -4.179688 6.015625 -4.078125 C 5.835938 -3.972656 5.609375 -3.820312 5.328125 -3.625 L 5.328125 0 L 3.921875 0 L 3.921875 -3.203125 C 3.921875 -3.546875 3.867188 -3.800781 3.765625 -3.96875 C 3.671875 -4.144531 3.507812 -4.234375 3.28125 -4.234375 C 3.0625 -4.234375 2.863281 -4.179688 2.6875 -4.078125 C 2.507812 -3.972656 2.273438 -3.820312 1.984375 -3.625 L 1.984375 0 L 0.59375 0 L 0.59375 -5.21875 L 1.5 -5.21875 L 1.75 -4.65625 C 2.070312 -4.882812 2.40625 -5.0625 2.75 -5.1875 C 3.09375 -5.320312 3.394531 -5.390625 3.65625 -5.390625 C 4.363281 -5.390625 4.84375 -5.15625 5.09375 -4.6875 C 5.414062 -4.90625 5.742188 -5.078125 6.078125 -5.203125 C 6.421875 -5.328125 6.71875 -5.390625 6.96875 -5.390625 Z M 6.96875 -5.390625 "/></g></g></g><g fill="#a6a6a6" fill-opacity="1"><g transform="translate(74.8062, 51.299232)"><g><path d="M 1.28125 -5.96875 C 1.5 -5.96875 1.6875 -6.039062 1.84375 -6.1875 C 2 -6.34375 2.078125 -6.53125 2.078125 -6.75 C 2.078125 -6.96875 2 -7.148438 1.84375 -7.296875 C 1.6875 -7.453125 1.5 -7.53125 1.28125 -7.53125 C 1.0625 -7.53125 0.875 -7.453125 0.71875 -7.296875 C 0.570312 -7.148438 0.5 -6.96875 0.5 -6.75 C 0.5 -6.53125 0.570312 -6.34375 0.71875 -6.1875 C 0.875 -6.039062 1.0625 -5.96875 1.28125 -5.96875 Z M 0.59375 -5.21875 L 0.59375 0 L 1.984375 0 L 1.984375 -5.21875 Z M 0.59375 -5.21875 "/></g></g></g><g fill="#a6a6a6" fill-opacity="1"><g transform="translate(77.390355, 51.299232)"><g><path d="M 1.984375 -3.625 C 2.242188 -3.800781 2.484375 -3.945312 2.703125 -4.0625 C 2.921875 -4.175781 3.148438 -4.234375 3.390625 -4.234375 C 3.628906 -4.234375 3.8125 -4.140625 3.9375 -3.953125 C 4.070312 -3.773438 4.140625 -3.523438 4.140625 -3.203125 L 4.140625 0 L 5.546875 0 L 5.546875 -3.265625 C 5.546875 -3.941406 5.410156 -4.460938 5.140625 -4.828125 C 4.878906 -5.203125 4.414062 -5.390625 3.75 -5.390625 C 3.46875 -5.390625 3.144531 -5.320312 2.78125 -5.1875 C 2.414062 -5.0625 2.070312 -4.882812 1.75 -4.65625 L 1.5 -5.21875 L 0.59375 -5.21875 L 0.59375 0 L 1.984375 0 Z M 1.984375 -3.625 "/></g></g></g><g fill="#a6a6a6" fill-opacity="1"><g transform="translate(83.484636, 51.299232)"><g><path d="M 5.453125 0.25 C 5.453125 0.96875 5.203125 1.515625 4.703125 1.890625 C 4.203125 2.273438 3.53125 2.46875 2.6875 2.46875 C 2.414062 2.46875 2.050781 2.410156 1.59375 2.296875 C 1.144531 2.191406 0.796875 2.054688 0.546875 1.890625 L 0.96875 0.890625 C 1.289062 1.046875 1.582031 1.160156 1.84375 1.234375 C 2.113281 1.304688 2.378906 1.347656 2.640625 1.359375 C 3.066406 1.347656 3.40625 1.242188 3.65625 1.046875 C 3.914062 0.847656 4.046875 0.578125 4.046875 0.234375 L 4.046875 -0.203125 C 3.691406 0.015625 3.304688 0.125 2.890625 0.125 C 2.078125 0.125 1.4375 -0.117188 0.96875 -0.609375 C 0.5 -1.097656 0.265625 -1.765625 0.265625 -2.609375 C 0.265625 -3.148438 0.367188 -3.628906 0.578125 -4.046875 C 0.796875 -4.460938 1.101562 -4.785156 1.5 -5.015625 C 1.90625 -5.242188 2.382812 -5.359375 2.9375 -5.359375 C 3.175781 -5.359375 3.429688 -5.300781 3.703125 -5.1875 C 3.972656 -5.070312 4.207031 -4.925781 4.40625 -4.75 L 4.71875 -5.21875 L 5.453125 -5.21875 Z M 2.953125 -1.0625 C 3.140625 -1.0625 3.316406 -1.097656 3.484375 -1.171875 C 3.660156 -1.242188 3.847656 -1.351562 4.046875 -1.5 L 4.046875 -3.71875 C 3.859375 -3.882812 3.675781 -4 3.5 -4.0625 C 3.332031 -4.132812 3.148438 -4.171875 2.953125 -4.171875 C 2.566406 -4.171875 2.265625 -4.023438 2.046875 -3.734375 C 1.828125 -3.441406 1.71875 -3.066406 1.71875 -2.609375 C 1.71875 -2.148438 1.828125 -1.773438 2.046875 -1.484375 C 2.265625 -1.203125 2.566406 -1.0625 2.953125 -1.0625 Z M 2.953125 -1.0625 "/></g></g></g></svg>